<svg height="64" viewBox="0 0 512 512" width="64" xmlns="http://www.w3.org/2000/svg"><g id="Filled_outline" data-name="Filled outline"><path d="m448 112h40v8c0 13.255-14.327 24-32 24a42.282 42.282 0 0 1 -8-.756" fill="#804a32"/><path d="m176 296-24 32 24 72h-32l-40-80v-24z" fill="#6e3d26"/><path d="m304 296v104h-32v-56l-24-48z" fill="#6e3d26"/><path d="m400 112v88l-32 80v120h-32v-64l-32-40h-176l-56 48v56h-32v-72l16-32v-136a48 48 0 0 1 48-48z" fill="#804a32"/><path d="m400 112v88l-32 80v120h-32v-64l-32-40h-176l-56 48v56h-32v-72l16-32v-28.46c104.5-18.26 234.05-60.2 322.63-155.54z" fill="#78462f"/><path d="m160 224a32 32 0 0 1 -32-32v-80h104v29.766a32 32 0 0 1 -25.724 31.379l-14.276 2.855v16a32 32 0 0 1 -32 32z" fill="#ebebe9"/><rect fill="#ebebe9" height="64" rx="24" width="48" x="232" y="184"/><path d="m392 112h-64v8c0 13.255 14.327 24 32 24a40.275 40.275 0 0 0 16-3.219v51.219l32 32h40v-112z" fill="#9c5c3e"/><path d="m488 104h-384a56.069 56.069 0 0 0 -50.586 32h-13.414a24 24 0 0 0 -24 24v136a8 8 0 0 0 8 8 8 8 0 0 0 8-8v-136a8 8 0 0 1 8-8h8.581a56.14 56.14 0 0 0 -.581 8v134.111l-15.156 30.312a8 8 0 0 0 -.844 3.577v72a8 8 0 0 0 8 8h32a8 8 0 0 0 8-8v-52.32l20.227-17.338 36.618 73.236a8 8 0 0 0 7.155 4.422h31.783a8.274 8.274 0 0 0 4.954-1.547 8.013 8.013 0 0 0 2.852-8.983l-22.674-68.023 19.085-25.447h63.056l20.944 41.889v54.111a8 8 0 0 0 8 8h32a8 8 0 0 0 8-8v-81.194l16 20v61.194a8 8 0 0 0 8 8h32a8 8 0 0 0 8-8v-118.549l21.31-56.827 5.034 5.033a8 8 0 0 0 5.656 2.343h40a8 8 0 0 0 8-8v-72c22.056 0 40-14.355 40-32v-8a8 8 0 0 0 -8-8zm-264 16v21.766a24.065 24.065 0 0 1 -19.293 23.534l-14.276 2.855a8 8 0 0 0 -6.431 7.845v16a24 24 0 0 1 -48 0v-72zm-79.589 210.53 20.489 61.47h-15.956l-36.195-72.391 18.21-15.609h29.041l-14.4 19.2a8 8 0 0 0 -1.189 7.33zm135.589 61.47v-48a7.994 7.994 0 0 0 -.845-3.578l-18.211-36.422h35.056v88zm104-177.451-23.491 62.642a8 8 0 0 0 -.509 2.809v112h-16v-56a8 8 0 0 0 -1.753-5l-30.247-37.806v-45.194h-16v40h-160v-40h-16v44.32l-53.207 45.606a8 8 0 0 0 -2.793 6.074v48h-16v-62.111l15.155-30.311a7.994 7.994 0 0 0 .845-3.578v-136a40.045 40.045 0 0 1 40-40h16v72a40 40 0 0 0 80 0v-9.441l7.845-1.569a40.109 40.109 0 0 0 32.155-39.224v-21.766h80c0 17.645 17.944 32 40 32a50.235 50.235 0 0 0 8-.641v40.641a8 8 0 0 0 2.343 5.657l13.657 13.656zm56 1.451h-28.687l-27.313-27.313v-47.906a8 8 0 0 0 -11.185-7.338 32.433 32.433 0 0 1 -12.815 2.557c-13.009 0-24-7.327-24-16h104zm16-80v-16h24c0 8.673-10.991 16-24 16z"/><path d="m256 176a32.036 32.036 0 0 0 -32 32v16a32 32 0 0 0 64 0v-16a32.036 32.036 0 0 0 -32-32zm16 48a16 16 0 0 1 -32 0v-16a16 16 0 0 1 32 0z"/></g></svg>